<svg width="40" height="40" viewBox="0 0 40 40" fill="none" xmlns="http://www.w3.org/2000/svg">
<g clip-path="url(#clip0_103566_250510)">
<rect width="40" height="40" rx="10" fill="url(#paint0_linear_103566_250510)"/>
<path d="M14.1662 13.8118C14.1662 15.4728 13.4805 16.8442 12.1091 17.9261C10.9357 18.8252 9.38145 19.2747 7.44621 19.2747C5.29764 19.2747 3.27097 18.5737 1.36621 17.1718L3.65193 13.2861C4.33764 13.8499 5.08431 14.2766 5.89193 14.5661C6.71478 14.8556 7.37002 15.0004 7.85764 15.0004C8.63478 15.0004 9.02335 14.7794 9.02335 14.3375C8.93193 13.9718 8.55097 13.6975 7.8805 13.5147C7.37764 13.3775 6.61573 13.1337 5.59478 12.7833C4.58907 12.3871 3.86526 11.9985 3.42335 11.6175C2.46335 10.7947 1.98335 9.67468 1.98335 8.25754C1.98335 6.71849 2.59288 5.44611 3.81193 4.4404C4.90907 3.52611 6.45573 3.06897 8.45192 3.06897C9.48812 3.06897 10.5091 3.24421 11.5148 3.59468C12.5357 3.92992 13.3891 4.38706 14.0748 4.96611L12.1091 8.62325C11.5605 8.13563 10.9205 7.76992 10.1891 7.52611C9.45764 7.25182 8.84812 7.11468 8.3605 7.11468C7.50716 7.11468 7.0805 7.32801 7.0805 7.75468C7.0805 8.05944 7.44621 8.30325 8.17764 8.48611L8.97764 8.73754C9.40431 8.84421 9.7624 8.95087 10.0519 9.05754C11.21 9.43849 12.0862 9.8804 12.6805 10.3833C13.671 11.2366 14.1662 12.3794 14.1662 13.8118Z" fill="white"/>
<path d="M24.6191 3.22897H29.8305V12.2575C29.8305 14.5433 29.2591 16.2575 28.1162 17.4004C26.8819 18.6347 25.0534 19.2518 22.6305 19.2518C20.2076 19.2518 18.3791 18.6347 17.1448 17.4004C16.0019 16.2575 15.4305 14.5433 15.4305 12.2575V3.22897H20.6191V12.4861C20.6191 13.2785 20.7943 13.8499 21.1448 14.2004C21.5257 14.5813 22.021 14.7718 22.6305 14.7718C23.24 14.7718 23.7353 14.5813 24.1162 14.2004C24.4514 13.8652 24.6191 13.2937 24.6191 12.4861V3.22897Z" fill="white"/>
<path d="M45.6414 14.429C45.6414 16.0137 45.0547 17.1947 43.8814 17.9718C42.8452 18.6575 41.4738 19.0004 39.7671 19.0004H31.9957V3.22897H38.51C40.2623 3.22897 41.5957 3.41944 42.51 3.8004C43.1957 4.07468 43.7519 4.50897 44.1785 5.10325C44.6204 5.69754 44.8414 6.40611 44.8414 7.22897C44.8414 8.05182 44.6281 8.78325 44.2014 9.42325C43.7747 10.048 43.249 10.4823 42.6242 10.7261C43.5538 10.9852 44.2852 11.4423 44.8185 12.0975C45.3671 12.7528 45.6414 13.5299 45.6414 14.429ZM39.7671 8.09754C39.7671 7.70135 39.6147 7.39659 39.31 7.18325C39.0966 7.03087 38.7157 6.95468 38.1671 6.95468H37.1385V9.2404H38.1671C38.67 9.2404 39.0509 9.15659 39.31 8.98897C39.6147 8.77563 39.7671 8.47849 39.7671 8.09754ZM40.4528 13.9261C40.4528 13.4842 40.3004 13.1566 39.9957 12.9433C39.7214 12.7604 39.3404 12.669 38.8528 12.669H37.1385V15.1833H38.8528C39.9195 15.1833 40.4528 14.7642 40.4528 13.9261Z" fill="white"/>
<path d="M54.9707 2.97754C57.485 2.97754 59.5421 3.70897 61.1421 5.17182C62.7421 6.63468 63.5421 8.62325 63.5421 11.1375C63.5421 13.6518 62.7421 15.6404 61.1421 17.1033C59.5269 18.5509 57.4697 19.2747 54.9707 19.2747C52.4716 19.2747 50.4145 18.5509 48.7992 17.1033C47.1992 15.6404 46.3992 13.6518 46.3992 11.1375C46.3992 8.62325 47.1992 6.63468 48.7992 5.17182C50.3992 3.70897 52.4564 2.97754 54.9707 2.97754ZM57.4164 13.6975C58.0259 13.0271 58.3307 12.1356 58.3307 11.0233C58.3307 9.91087 58.0259 9.02706 57.4164 8.37182C56.8069 7.68611 55.9916 7.34325 54.9707 7.34325C53.9497 7.34325 53.1269 7.68611 52.5021 8.37182C51.8926 9.02706 51.5878 9.91087 51.5878 11.0233C51.5878 12.1356 51.8926 13.0271 52.5021 13.6975C53.1269 14.368 53.9497 14.7033 54.9707 14.7033C55.9764 14.7033 56.7916 14.368 57.4164 13.6975Z" fill="white"/>
<path d="M-10.8338 31.5257C-10.8338 33.1866 -11.5195 34.5581 -12.8909 35.64C-14.0643 36.539 -15.6186 36.9885 -17.5538 36.9885C-19.7024 36.9885 -21.729 36.2876 -23.6338 34.8857L-21.3481 31C-20.6624 31.5638 -19.9157 31.9905 -19.1081 32.28C-18.2852 32.5695 -17.63 32.7143 -17.1424 32.7143C-16.3652 32.7143 -15.9766 32.4933 -15.9766 32.0514C-16.0681 31.6857 -16.449 31.4114 -17.1195 31.2285C-17.6224 31.0914 -18.3843 30.8476 -19.4052 30.4971C-20.4109 30.1009 -21.1347 29.7124 -21.5766 29.3314C-22.5366 28.5085 -23.0166 27.3885 -23.0166 25.9714C-23.0166 24.4324 -22.4071 23.16 -21.1881 22.1543C-20.0909 21.24 -18.5443 20.7828 -16.5481 20.7828C-15.5119 20.7828 -14.4909 20.9581 -13.4852 21.3085C-12.4643 21.6438 -11.6109 22.1009 -10.9252 22.68L-12.8909 26.3371C-13.4395 25.8495 -14.0795 25.4838 -14.8109 25.24C-15.5424 24.9657 -16.1519 24.8285 -16.6395 24.8285C-17.4928 24.8285 -17.9195 25.0419 -17.9195 25.4685C-17.9195 25.7733 -17.5538 26.0171 -16.8224 26.2L-16.0224 26.4514C-15.5957 26.5581 -15.2376 26.6647 -14.9481 26.7714C-13.79 27.1524 -12.9138 27.5943 -12.3195 28.0971C-11.329 28.9505 -10.8338 30.0933 -10.8338 31.5257Z" fill="white"/>
<path d="M-0.380934 20.9428H4.8305V29.9714C4.8305 32.2571 4.25907 33.9714 3.11621 35.1143C1.88192 36.3485 0.0533526 36.9657 -2.3695 36.9657C-4.79236 36.9657 -6.62093 36.3485 -7.85522 35.1143C-8.99808 33.9714 -9.5695 32.2571 -9.5695 29.9714V20.9428H-4.38093V30.2C-4.38093 30.9924 -4.2057 31.5638 -3.85522 31.9143C-3.47427 32.2952 -2.97903 32.4857 -2.3695 32.4857C-1.75998 32.4857 -1.26474 32.2952 -0.883791 31.9143C-0.548553 31.579 -0.380934 31.0076 -0.380934 30.2V20.9428Z" fill="white"/>
<path d="M20.6414 32.1428C20.6414 33.7276 20.0547 34.9085 18.8814 35.6857C17.8452 36.3714 16.4738 36.7143 14.7671 36.7143H6.99567V20.9428H13.51C15.2623 20.9428 16.5957 21.1333 17.51 21.5143C18.1957 21.7885 18.7519 22.2228 19.1785 22.8171C19.6204 23.4114 19.8414 24.12 19.8414 24.9428C19.8414 25.7657 19.6281 26.4971 19.2014 27.1371C18.7747 27.7619 18.249 28.1962 17.6242 28.44C18.5538 28.699 19.2852 29.1562 19.8185 29.8114C20.3671 30.4666 20.6414 31.2438 20.6414 32.1428ZM14.7671 25.8114C14.7671 25.4152 14.6147 25.1105 14.31 24.8971C14.0966 24.7447 13.7157 24.6685 13.1671 24.6685H12.1385V26.9543H13.1671C13.67 26.9543 14.0509 26.8705 14.31 26.7028C14.6147 26.4895 14.7671 26.1924 14.7671 25.8114ZM15.4528 31.64C15.4528 31.1981 15.3004 30.8705 14.9957 30.6571C14.7214 30.4743 14.3404 30.3828 13.8528 30.3828H12.1385V32.8971H13.8528C14.9195 32.8971 15.4528 32.4781 15.4528 31.64Z" fill="white"/>
<path d="M29.9707 20.6914C32.485 20.6914 34.5421 21.4228 36.1421 22.8857C37.7421 24.3485 38.5421 26.3371 38.5421 28.8514C38.5421 31.3657 37.7421 33.3543 36.1421 34.8171C34.5269 36.2647 32.4697 36.9885 29.9707 36.9885C27.4716 36.9885 25.4145 36.2647 23.7992 34.8171C22.1992 33.3543 21.3992 31.3657 21.3992 28.8514C21.3992 26.3371 22.1992 24.3485 23.7992 22.8857C25.3992 21.4228 27.4564 20.6914 29.9707 20.6914ZM32.4164 31.4114C33.0259 30.7409 33.3307 29.8495 33.3307 28.7371C33.3307 27.6247 33.0259 26.7409 32.4164 26.0857C31.8069 25.4 30.9916 25.0571 29.9707 25.0571C28.9497 25.0571 28.1269 25.4 27.5021 26.0857C26.8926 26.7409 26.5878 27.6247 26.5878 28.7371C26.5878 29.8495 26.8926 30.7409 27.5021 31.4114C28.1269 32.0819 28.9497 32.4171 29.9707 32.4171C30.9764 32.4171 31.7916 32.0819 32.4164 31.4114Z" fill="white"/>
</g>
<defs>
<linearGradient id="paint0_linear_103566_250510" x1="31.5756" y1="50.1075" x2="-23.0443" y2="40.7103" gradientUnits="userSpaceOnUse">
<stop stop-color="#00AAFF"/>
<stop offset="1" stop-color="#002882"/>
</linearGradient>
<clipPath id="clip0_103566_250510">
<rect width="40" height="40" rx="10" fill="white"/>
</clipPath>
</defs>
</svg>
